<svg width="66" height="66" fill="none" xmlns="http://www.w3.org/2000/svg"><path d="M33 2A31 31 0 0 0 2 33c0 17.12 15.5 31 31 31s31-13.88 31-31A31 31 0 0 0 33 2z" stroke="#fff" stroke-width="4"/><path d="M41 57.35l-3.37 1.63-2.59-21.09-1.41-1.35-1.23 1.68L35 59.3l-2.65.32-3.63-27.03-6.34-4.76-3.15-.75L26.11 32l2.62.58-2.17.42 4.01 26.62-1.53-.81-3.32-25.86-7.37-5.67-.18-1.54 4.03.45 1.92-2.18-4.03-.45 4.5-13.06 3.56-.44 1.38 11.26-5.42 2.69-1.91 2.18 16.64-7.75-1.52-8.47-2.01-.1.92 8 2.14.64-2.64.13-4.74 1.9-.34-.6 4.46-1.94-1.19-9.74 3.38-.2 2.89 2.07 4.03 7.46-5.86 3.72-7.1 3.6.59 4.81 6.34-3.05v-.42l-.46-4.32-2.18.77.32 3.52 1.9.34.49.17-.9.44-1.86-.33-4.63 2.38-1.63-.34 2.62-1.04 3.26-1.65-.46-3.75 9.57-4.84-.9 8.58-5.37 7.54 3.03 23.62z" fill="#fff"/></svg>