<svg xmlns="http://www.w3.org/2000/svg" width="304.53" height="304.53"><defs><linearGradient id="a" x1=".02" y1=".98" x2=".98" y2=".02" gradientUnits="objectBoundingBox"><stop offset="0" stop-color="#7f41ef"/><stop offset="1" stop-color="#4f29d0"/></linearGradient></defs><g data-name="Group 1"><path d="M152.27 0A152.27 152.27 0 0 0 0 152.27c0 84.1 76.13 152.26 152.27 152.26s152.26-68.17 152.26-152.26A152.27 152.27 0 0 0 152.27 0zM141.7 6.98l10.57 31.6 8.94 36.8-9.6 121.8-8.8 7.3 5.4-118.66 1.49-1.32-3.94-39.79 1.66 41.1-7 119.64-13.86-10.34 1.28-105.96 6.88-34.62-6.88 29.03-3.67 108.1-7.25-9.14-.63-104.03 15.8-41.3zM213 60.16l12.73 64.91L200 236.63l-16.44 10.5 24.59-112.96 2.32-2.93 1.7-37.37-4.02 40.3-28.08 112.96-16.77-5.28 24.84-110.61 10.37-32.13-11.31 27.69v3.63l-25.85 109.11-8.3-9.8 22.67-113.05zM101.21 166.63l78.85 105.97-5.48-2.48-79.62-101.88 76.15 101.88-13.86-3.69-9.42-1.88-61.5-84.14 59.2 83.83-2.9-.9-80.25-110.53-31.45-5.18 12.52-15.54-9.98-14.91V99.57l-4.43 2.7-.44 16 4.16-.94-3.92 1.9 9.02 14.27 3.97-.93-11.65 13.48 10.22-12.56-2.72.68-12.3 15.4 5.55-1.94-4.62 2.09 33.3 5.7 2.45-2.18-2.03 2.48 39.34 59.66-40.44-58.28-35.6-6.59L35.7 133.5l-8.66-14.26.8-17.61 5.64-3 24.12 24.85 13-13.71-22.52-23.63-3.1 3.85 21 24.76L43.9 90.39l3.57-5.02L68.6 87.8l20.9 12.07-35.34 37.18 3.44 2.68 8.12-6.68-3.3 1.13 3.93-1.6 7.56 8.35 2.11-2.24 6.82-8.26-6.36-7.62-2.57 2.32 1.57 1.84 2.37-1.2-1.83 1.67 1.95 2.56 1.84-1.36-1.35 1.8 1.88 2.66-7.32-7.98 3-3.17 16.2-18.71 7.16 21.88-4.41 15.8z" fill="url(#a)"/><path data-name="Path 1" d="M115.66 77.3l11.94 9.07 11.7-10.75 9.12 9.22L162.72 74" fill="none" stroke="#6534de" stroke-width="3"/><path data-name="Path 4" d="M174.05 114.96l12.9 14.31 15.74-9.68 6.74 12.8 20.23-8.5" fill="none" stroke="#6534de" stroke-width="3.0003599999999997"/><path data-name="Path 2" d="M131.26 35.76l5.88 4.13 3.75-5.44 6.8 3.25 3.78-4.31" fill="none" stroke="#6032db" stroke-width="2"/><path data-name="Path 3" d="M199.3 79.4l1.78 2.13 1.2 1.42 2.2 2.57 6.07-4 4.13 4 1.27-.84 1.02-.69 1.3-.87 1.17-.78" fill="none" stroke="#6032db" stroke-width="2.00024"/></g></svg>