<svg width="73" height="77" fill="none" xmlns="http://www.w3.org/2000/svg"><path fill-rule="evenodd" clip-rule="evenodd" d="M36.5 69.63c18.7 0 32.44-13.84 32.44-32.77C68.94 17.93 55.2 4.1 36.5 4.1 17.8 4.1 4.06 17.93 4.06 36.86S17.8 69.63 36.5 69.63zm0 4.1c20.16 0 36.5-16.5 36.5-36.87C73 16.5 56.66 0 36.5 0S0 16.5 0 36.86s16.34 36.87 36.5 36.87z" fill="#363636"/><path d="M52.3 68.82s-1 .6-2.38 1.2c-2.08.9-2.38.9-2.38.9L45.52 58.1l-2.35-1.7-1.46 2.74 2.11 12.84s-.89.3-1.93.45l-2.08.3-4.67-21.18-10.3-5.74-4.8-.46 11.13 5.88 3.99.32-3.12 1.08 5.09 20.25H34.9l-4.1-20.15-12-6.88-.59-2.25 6.03-.18 2.37-3.64-6.02.18 3.92-20.33 5.14-1.39L34 34.66l-7.4 5.13-2.37 3.63 22.86-14.97L43.1 16.2l-2.97.27 3 11.68 3.28.5-3.84.75-6.59 3.81-.62-.8 6.16-3.82-3.76-14.22 4.92-1 4.67 2.46 7.47 10.25-7.85 6.74-9.69 6.83 1.86 7.01 8.7-5.85-.1-.63-1.56-6.31-3.05 1.6 1.2 5.16 2.87.11.75.14-1.24.84-2.79-.1-6.32 4.5-2.46-.16 3.63-2.09 4.45-3.14-1.46-5.47 13.08-9.17.44 12.92-6.33 12.32 3.35 17.5z" fill="#363636"/></svg>