<svg xmlns="http://www.w3.org/2000/svg" width="153.1" height="117.6"><defs><filter id="Rectangle_9" x="0" y="0" width="135" height="101" filterUnits="userSpaceOnUse"><feOffset dy="3"/><feGaussianBlur stdDeviation="2.5" result="blur"/><feFlood flood-opacity=".5"/><feComposite operator="in" in2="blur"/><feComposite in="SourceGraphic"/></filter><linearGradient id="linear-gradient" x1=".5" x2=".5" y2="1" gradientUnits="objectBoundingBox"><stop offset="0" stop-color="#7f41ef"/><stop offset="1" stop-color="#7f41ef"/></linearGradient><linearGradient id="linear-gradient-2" y1=".1" x2=".9" y2=".9" gradientUnits="objectBoundingBox"><stop offset="0" stop-color="#9720ff"/><stop offset="1" stop-color="#4500c1"/><stop offset="1" stop-color="#402178"/></linearGradient><filter id="logo-standard" x="87.2" y="36.8" width="65.9" height="80.8" filterUnits="userSpaceOnUse"><feOffset dy="3"/><feGaussianBlur stdDeviation="1.5" result="blur-2"/><feFlood flood-opacity=".7"/><feComposite operator="in" in2="blur-2"/><feComposite in="SourceGraphic"/></filter><filter id="Rectangle_12" x="31" y="16" width="37" height="39" filterUnits="userSpaceOnUse"><feOffset dy="1"/><feGaussianBlur stdDeviation=".5" result="blur-3"/><feFlood flood-color="#010000" flood-opacity=".1"/><feComposite operator="in" in2="blur-3"/><feComposite in="SourceGraphic"/></filter><filter id="Rectangle_13" x="22" y="79" width="65" height="10" filterUnits="userSpaceOnUse"><feOffset dy="1"/><feGaussianBlur stdDeviation=".5" result="blur-4"/><feFlood flood-opacity=".3"/><feComposite operator="in" in2="blur-4"/><feComposite in="SourceGraphic"/></filter></defs><g filter="url(#Rectangle_9)"><g id="Rectangle_9-2" data-name="Rectangle 9" fill="#282631" stroke="#040404" stroke-width="2" stroke-dasharray="76"><path stroke="none" d="M0 0h120v86H0z" transform="translate(7.5 4.5)"/><path fill="none" d="M8.5 5.5h118v84H8.5z"/></g></g><g id="Rectangle_10" data-name="Rectangle 10" transform="translate(7.5 4.5)" stroke="#040404" stroke-width="2" stroke-dasharray="29" fill="url(#linear-gradient)"><path stroke="none" d="M0 0h12v86H0z"/><path fill="none" d="M1 1h10v84H1z"/></g><path id="Line_1" data-name="Line 1" transform="translate(118.5 8.5)" fill="none" stroke="#fff" d="M0 0l3 3"/><path id="Line_2" data-name="Line 2" transform="translate(118.5 8.5)" fill="none" stroke="#fff" d="M3 0L0 3"/><path id="Line_3" data-name="Line 3" transform="translate(105 10)" fill="none" stroke="#fff" d="M0 0h3"/><g id="Rectangle_11" data-name="Rectangle 11" fill="none" stroke="#fff"><path stroke="none" d="M0 0h3v3H0z" transform="translate(111.5 8.5)"/><path d="M.5.5h2v2h-2z" transform="translate(111.5 8.5)"/></g><g filter="url(#logo-standard)"><path id="logo-standard-2" data-name="logo-standard" d="M42 55.3l-3 3.5-13.4-23.1-2.3-1-.6 2.6L36 60.5l-2.8 1.7-17.5-29.6L6 30.2 2 31l10.3 2.3 3.4-.6-2.4 1.6L31.1 63l-2.2-.1-16.6-28.4-11.3-3L0 30l5-1.5L6 25l-4.8 1.4L0 9.1l4-2.3 7 12.4L6 25l-1 3.4 15.4-17.1-6-9.1-2.3.9 5 8.8 2.8-.3-3 1.4-4.5 4.6-.7-.6 4.2-4.4L9.7 1.9 13.5 0 18 1l8.3 6.6-5 7.2-6.4 7.7 3 5.3 6-6.7-.3-.5-2.7-4.7-2.1 2 2 3.8 2.5-.5h.6l-.8 1-2.3.4-4.2 5-2 .5 2.4-2.5 3-3.5-2.4-4.2 8.7-10.3L29.4 18 27 29.4z" transform="rotate(15 -91.4 429.2)" fill="url(#linear-gradient-2)"/></g><g filter="url(#Rectangle_12)"><path id="Rectangle_12-2" data-name="made-by-alve-larsson-2019" transform="translate(32.5 16.5)" fill="#201f27" d="M0 0h34v36H0z"/></g><g filter="url(#Rectangle_13)"><path id="Rectangle_13-2" data-name="Rectangle 13" transform="translate(23.5 79.5)" fill="#312f3e" d="M0 0h62v7H0z"/></g></svg>