<svg xmlns="http://www.w3.org/2000/svg" width="105.6" height="116.5"><defs><filter id="Rectangle_15" x="0" y="0" width="93" height="104" filterUnits="userSpaceOnUse"><feOffset dy="3"/><feGaussianBlur stdDeviation="2.5" result="blur"/><feFlood flood-opacity=".5"/><feComposite operator="in" in2="blur"/><feComposite in="SourceGraphic"/></filter><filter id="Rectangle_54" x="1.5" y="30.5" width="89.2" height="26" filterUnits="userSpaceOnUse"><feOffset/><feGaussianBlur stdDeviation="1" result="blur-2"/><feFlood flood-opacity=".1"/><feComposite operator="in" in2="blur-2"/><feComposite in="SourceGraphic"/></filter><filter id="Rectangle_62" x="1.5" y="58.5" width="89.2" height="26" filterUnits="userSpaceOnUse"><feOffset/><feGaussianBlur stdDeviation="1" result="blur-3"/><feFlood flood-opacity=".1"/><feComposite operator="in" in2="blur-3"/><feComposite in="SourceGraphic"/></filter><filter id="Rectangle_77" x="54.1" y="60" width="28.1" height="28.1" filterUnits="userSpaceOnUse"><feOffset dy="3"/><feGaussianBlur stdDeviation="3.5" result="blur-4"/><feFlood flood-opacity=".4"/><feComposite operator="in" in2="blur-4"/><feComposite in="SourceGraphic"/></filter><linearGradient id="linear-gradient" x1=".5" x2=".5" y2="1" gradientUnits="objectBoundingBox"><stop offset="0" stop-color="#9720ff"/><stop offset="1" stop-color="#4500c1"/></linearGradient><filter id="Path_19" x="75.3" y="71.8" width="30.2" height="44.7" filterUnits="userSpaceOnUse"><feOffset dy="3"/><feGaussianBlur stdDeviation="1.5" result="blur-5"/><feFlood flood-opacity=".5"/><feComposite operator="in" in2="blur-5"/><feComposite in="SourceGraphic"/></filter></defs><g filter="url(#Rectangle_15)"><g id="Rectangle_15-2" data-name="Rectangle 15" fill="#282631" stroke="#040404" stroke-width="2" stroke-dasharray="90"><path stroke="none" d="M0 0h78v89H0z" transform="translate(7.5 4.5)"/><path fill="none" d="M8.5 5.5h76v87h-76z"/></g></g><g filter="url(#Rectangle_54)"><g id="Rectangle_54-2" data-name="Rectangle 54" fill="#2c243c" stroke="rgba(0,0,0,0.69)" stroke-width="2" stroke-dasharray="45"><path stroke="none" d="M0 0h83.2v20H0z" transform="translate(4.5 33.5)"/><path fill="none" d="M5.5 34.5h81.2v18H5.5z"/></g></g><g id="Rectangle_58" data-name="Rectangle 58" transform="translate(64.1 39.1)" fill="#7f41ef" stroke="#7f41ef" stroke-width="3"><rect width="14.3" height="8" rx="4" stroke="none"/><rect x="1.5" y="1.5" width="11.3" height="5" rx="2.5" fill="none"/></g><rect id="Rectangle_61" data-name="Rectangle 61" width="4.9" height="4.9" rx="2.5" transform="translate(72 40.7)" fill="#2c243c"/><path id="Path_7" data-name="Path 7" d="M25.2 31.2h10.6" fill="#fff" stroke="rgba(255,255,255,0.2)" stroke-width="3"/><path id="Path_8" data-name="Path 8" d="M36.3 31.2h4" fill="#fff" stroke="rgba(255,255,255,0.2)" stroke-width="3"/><path id="Path_9" data-name="Path 9" d="M25.2 43.2h10.6" fill="#fff" stroke="#fff" stroke-width="3"/><path id="Path_11" data-name="Path 11" d="M36.2 43.2H41" fill="#fff" stroke="#fff" stroke-width="3"/><path id="Path_10" data-name="Path 10" d="M41.8 43.2h4" fill="#fff" stroke="#fff" stroke-width="3"/><path id="Path_12" data-name="Path 12" d="M46.1 43.2h9.4" fill="#fff" stroke="#fff" stroke-width="3"/><g filter="url(#Rectangle_62)"><g id="Rectangle_62-2" data-name="Rectangle 62" fill="#2c243c" stroke="rgba(0,0,0,0.69)" stroke-width="2" stroke-dasharray="28"><path stroke="none" d="M0 0h83.2v20H0z" transform="translate(4.5 61.5)"/><path fill="none" d="M5.5 62.5h81.2v18H5.5z"/></g></g><path id="Path_13" data-name="Path 13" d="M25.2 59.2h10.6" fill="#fff" stroke="rgba(255,255,255,0.17)" stroke-width="3"/><path id="Path_14" data-name="Path 14" d="M36.3 59.2h4" fill="#fff" stroke="rgba(255,255,255,0.17)" stroke-width="3"/><path id="Path_15" data-name="Path 15" d="M25.2 71.2h10.6" fill="#fff" stroke="#fff" stroke-width="3"/><path id="Path_16" data-name="Path 16" d="M36.2 71.2H41" fill="#fff" stroke="#fff" stroke-width="3"/><path id="Path_17" data-name="Path 17" d="M41.8 71.2h4" fill="#fff" stroke="#fff" stroke-width="3"/><path id="Path_18" data-name="Path 18" d="M46.1 71.2h9.4" fill="#fff" stroke="#fff" stroke-width="3"/><g id="Rectangle_76" data-name="Rectangle 76" transform="translate(64.2 67.1)" fill="none" stroke="#7f41ef"><rect width="14.7" height="8.2" rx="4.1" stroke="none"/><rect x=".5" y=".5" width="13.7" height="7.2" rx="3.6"/></g><g filter="url(#Rectangle_77)"><g id="Rectangle_77-2" data-name="Rectangle 77" transform="translate(64.5 67.5)" fill="none" stroke="#7f41ef"><rect width="7.1" height="7.1" rx="3.5" stroke="none"/><rect x=".5" y=".5" width="6.1" height="6.1" rx="3"/></g></g><g filter="url(#Path_19)"><path id="Path_19-2" data-name="Path 19" d="M3427.8 491v27.2l6.3-3.8 5.3 8.6 6.3-4.8-4.8-8 5.4-3.5z" transform="translate(-3347 -415.5)" stroke="#39007a" stroke-width="2" stroke-dasharray="17" fill="url(#linear-gradient)"/></g><g id="Rectangle_78" data-name="Rectangle 78" fill="#7f41ef" stroke="#040404" stroke-width="2" stroke-dasharray="40"><path stroke="none" d="M0 0h78v13H0z" transform="translate(7.5 4.5)"/><path fill="none" d="M8.5 5.5h76v11h-76z"/></g><path id="Line_4" data-name="Line 4" fill="none" stroke="#fff" stroke-width="2" d="M74.6 7.7l4.7 4.7"/><path id="Line_5" data-name="Line 5" fill="none" stroke="#fff" stroke-width="2" d="M79.3 7.7l-4.7 4.7"/></svg>