<svg xmlns="http://www.w3.org/2000/svg" width="952.55" height="232.21"><path d="M116.1 0A116.1 116.1 0 0 0 0 116.1c0 64.12 58.05 116.1 116.1 116.1s116.1-51.98 116.1-116.1A116.1 116.1 0 0 0 116.1 0z" fill="#7f41ef"/><path data-name="logo-standard" d="M146.04 207.3l-12.6 6.1-9.69-78.97-5.29-5.06-4.58 6.27 9.7 78.97-9.88 1.2-13.59-101.25L76.4 96.74l-11.87-2.83 25.75 18.46 9.85 2.2-8.16 1.56 15.05 99.68-5.75-3.02-12.44-96.84-27.58-21.23-.7-5.77 15.1 1.67 7.18-8.17-15.07-1.68 16.86-48.9 13.33-1.64 5.18 42.15-20.3 10.07-7.18 8.17 62.35-29-5.7-31.75-7.56-.38 3.45 29.95 8.03 2.4-9.88.5-17.76 7.13-1.28-2.21 16.74-7.32-4.48-36.47 12.66-.72 10.84 7.7 15.11 27.98-22 13.93-26.58 13.49 2.2 18 23.76-11.43v-1.6l-1.71-16.15-8.18 2.89 1.2 13.18 7.13 1.3 1.82.6-3.39 1.65-6.93-1.21-17.35 8.9-6.1-1.24 9.81-3.92 12.21-6.2-1.73-14.08 35.84-18.11-3.4 32.17-20.1 28.28z" fill="#fff"/><text data-name="Amethyst Web UI" transform="translate(315.55 140.66)" fill="#fff" font-size="71" font-family="Arvo-Bold, Arvo" font-weight="700"><tspan x="0" y="0">Amethyst</tspan><tspan y="0" font-family="Arvo" font-weight="400"> Web UI</tspan></text></svg>