<svg width="247" height="253" fill="none" xmlns="http://www.w3.org/2000/svg"><circle cx="123.5" cy="123.5" r="119.5" stroke="#4563FF" stroke-width="8"/><path d="M177.5 225.5s-3.33 2-8 4c-7 3-8 3-8 3l-6.78-42.68-7.93-5.69-4.88 9.13L149 236s-3 1-6.5 1.5l-7 1-15.7-70.5-34.63-19.12-16.1-1.52 37.4 19.58 13.4 1.06-10.47 3.59L126.5 239H119l-13.78-67.07-40.34-22.91-1.97-7.49 20.25-.6 7.97-12.1-20.22.58 13.16-67.65 17.27-4.63L116 111.8l-24.92 17.05-7.95 12.1L160 91.12 146.6 50.3l-10.01.91 10.09 38.87 11.05 1.68-12.94 2.5-22.14 12.68-2.1-2.68 20.73-12.72-12.66-47.33 16.56-3.3 15.7 8.18 25.12 34.1-26.4 22.46-32.58 22.72 6.26 23.34 29.22-19.5-.32-2.06-5.24-21.02-10.26 5.32 4.03 17.16 9.65.4 2.52.46-4.16 2.8-9.38-.32-21.24 14.96-8.28-.53 12.2-6.97 14.97-10.44-4.9-18.2 43.95-30.54 1.49 43.02-21.28 41 11.26 58.26z" fill="#4563FF"/></svg>