<svg width="139" height="139" fill="none" xmlns="http://www.w3.org/2000/svg"><path d="M.82 69.5a68.68 68.68 0 1 1 137.36 0 68.68 68.68 0 0 1-137.36 0z" fill="url(#paint0_linear)"/><path fill-rule="evenodd" clip-rule="evenodd" d="M69.5 118.72c27.13 0 49.16-22.14 49.16-49.51 0-27.37-22.03-49.52-49.16-49.52-27.12 0-49.16 22.15-49.16 49.52 0 27.37 22.04 49.51 49.16 49.51zm0 3.79c29.24 0 52.94-23.87 52.94-53.3 0-29.44-23.7-53.3-52.94-53.3s-52.94 23.86-52.94 53.3c0 29.43 23.7 53.3 52.94 53.3z" fill="#fff" style="mix-blend-mode:overlay"/><path fill-rule="evenodd" clip-rule="evenodd" d="M69.5 118.72c27.13 0 49.16-22.14 49.16-49.51 0-27.37-22.03-49.52-49.16-49.52-27.12 0-49.16 22.15-49.16 49.52 0 27.37 22.04 49.51 49.16 49.51zm0 3.79c29.24 0 52.94-23.87 52.94-53.3 0-29.44-23.7-53.3-52.94-53.3s-52.94 23.86-52.94 53.3c0 29.43 23.7 53.3 52.94 53.3z" fill="#fff" style="mix-blend-mode:overlay"/><path d="M92.46 113s-1.43.85-3.43 1.7c-3 1.3-3.43 1.3-3.43 1.3l-2.91-18.32-3.4-2.44-2.1 3.91 3.04 18.35s-1.29.43-2.79.64l-3 .43-6.74-30.26-14.87-8.2-6.9-.66 16.05 8.4 5.75.46-4.5 1.54 7.34 28.94h-3.22l-5.91-28.8-17.32-9.83-.84-3.21 8.69-.26 3.42-5.2-8.68.26 5.65-29.04 7.41-1.99 6.3 23.46-10.7 7.32-3.42 5.2 33-21.39-5.75-17.53-4.3.4 4.33 16.68 4.74.72-5.55 1.07-9.5 5.45-.9-1.16 8.9-5.46-5.44-20.31 7.1-1.42 6.74 3.52L96.11 51.9l-11.33 9.64-13.99 9.75 2.69 10.02 12.54-8.36-.14-.9-2.25-9.02-4.4 2.29 1.73 7.37 4.14.16 1.08.2-1.78 1.2-4.03-.13-9.12 6.42-3.55-.23 5.24-2.99 6.43-4.48-2.1-7.81 18.86-13.11.63 18.46-9.13 17.6L92.46 113z" fill="#fff" style="mix-blend-mode:overlay"/><path d="M92.46 113s-1.43.85-3.43 1.7c-3 1.3-3.43 1.3-3.43 1.3l-2.91-18.32-3.4-2.44-2.1 3.91 3.04 18.35s-1.29.43-2.79.64l-3 .43-6.74-30.26-14.87-8.2-6.9-.66 16.05 8.4 5.75.46-4.5 1.54 7.34 28.94h-3.22l-5.91-28.8-17.32-9.83-.84-3.21 8.69-.26 3.42-5.2-8.68.26 5.65-29.04 7.41-1.99 6.3 23.46-10.7 7.32-3.42 5.2 33-21.39-5.75-17.53-4.3.4 4.33 16.68 4.74.72-5.55 1.07-9.5 5.45-.9-1.16 8.9-5.46-5.44-20.31 7.1-1.42 6.74 3.52L96.11 51.9l-11.33 9.64-13.99 9.75 2.69 10.02 12.54-8.36-.14-.9-2.25-9.02-4.4 2.29 1.73 7.37 4.14.16 1.08.2-1.78 1.2-4.03-.13-9.12 6.42-3.55-.23 5.24-2.99 6.43-4.48-2.1-7.81 18.86-13.11.63 18.46-9.13 17.6L92.46 113z" fill="#fff" style="mix-blend-mode:overlay"/><defs><linearGradient id="paint0_linear" x1="139.1" y1="69.5" x2="-.73" y2="69.5" gradientUnits="userSpaceOnUse"><stop stop-color="#000639"/><stop stop-color="#21013A"/><stop offset=".27" stop-color="#1C0A3D"/><stop offset="1" stop-color="#0E2145"/></linearGradient></defs></svg>